<?xml version="1.0" standalone="no"?><!DOCTYPE svg PUBLIC "-//W3C//DTD SVG 1.1//EN" "http://www.w3.org/Graphics/SVG/1.1/DTD/svg11.dtd"><svg t="1560691256113" class="icon" style="" viewBox="0 0 1154 1024" version="1.1" xmlns="http://www.w3.org/2000/svg" p-id="3708" xmlns:xlink="http://www.w3.org/1999/xlink" width="54.09375" height="48"><defs><style type="text/css"></style></defs><path d="M1015.808 64.512q62.464 0 99.84 31.744t37.376 96.256l0 568.32q0 27.648-10.24 52.224t-28.16 43.008-41.984 29.184-50.688 10.752l-892.928 0q-26.624 0-50.176-10.24t-40.96-27.136-27.648-39.424-10.24-48.128l0-580.608q0-55.296 33.792-90.624t95.232-35.328l886.784 0zM287.744 253.952q-19.456 0-36.864 7.168t-30.72 19.968-20.992 30.72-7.68 38.4 7.68 37.888 20.992 30.72 30.72 20.992 36.864 7.68q21.504 0 39.424-7.68t30.72-20.992 20.48-30.72 7.68-37.888q0-41.984-27.648-69.12t-70.656-27.136zM448.512 608.256q0-19.456-7.68-37.376t-20.48-30.72-30.72-20.48-37.376-7.68l-128 0q-39.936 0-67.584 28.16t-27.648 68.096l0 4.096 0 92.16 319.488 0 0-92.16 0-4.096zM923.648 709.632q20.48 0 30.208-10.24t9.728-24.576-11.264-25.088-31.744-10.752l-305.152 0q-20.48 0-30.72 10.752t-10.24 25.088 10.24 24.576 29.696 10.24l309.248 0zM924.672 577.536q20.48 0 29.696-10.24t9.216-24.576q0-15.36-8.704-25.6t-29.184-10.24l-313.344 0q-20.48 0-29.696 10.24t-9.216 25.6q0 14.336 8.704 24.576t29.184 10.24l313.344 0zM925.696 447.488q15.36 0 26.624-10.24t11.264-24.576-11.264-23.04-26.624-8.704l-207.872 0q-15.36 0-26.112 8.704t-10.752 23.04 10.752 24.576 26.112 10.24l207.872 0z" p-id="3709"></path></svg>