<?xml version="1.0" standalone="no"?><!DOCTYPE svg PUBLIC "-//W3C//DTD SVG 1.1//EN" "http://www.w3.org/Graphics/SVG/1.1/DTD/svg11.dtd"><svg t="1560758596547" class="icon" style="" viewBox="0 0 1024 1024" version="1.1" xmlns="http://www.w3.org/2000/svg" p-id="2169" xmlns:xlink="http://www.w3.org/1999/xlink" width="48" height="48"><defs><style type="text/css"></style></defs><path d="M713.142857 236.982857c-31.451429 0-57.782857-21.942857-57.782857-48.274286V80.457143l217.234286 156.525714H713.142857zM660.48 0H140.434286C62.902857 0 0 66.56 0 148.48v726.308571C0 956.708571 62.902857 1024 140.434286 1024h391.314285l-39.497142-68.754286H140.434286c-40.228571 0-72.411429-35.84-72.411429-80.457143V148.48c0-44.617143 32.182857-80.457143 72.411429-80.457143h446.902857v120.685714c0 64.365714 56.32 117.028571 125.805714 117.028572h169.691429v151.405714H950.857143V209.92L660.48 0z" p-id="2170"></path><path d="M692.224 369.517714H162.377143a34.011429 34.011429 0 0 0-33.938286 34.157715c0 18.870857 15.140571 34.157714 33.938286 34.157714h529.92a34.084571 34.084571 0 0 0 33.938286-34.157714 34.084571 34.084571 0 0 0-33.938286-34.157715M501.76 557.348571l-39.497143 68.022858h-299.885714c-19.017143 0-34.377143-15.36-34.377143-33.645715 0-19.017143 15.36-34.377143 34.377143-34.377143h339.382857zM410.331429 813.348571H162.377143a34.377143 34.377143 0 0 1-34.377143-34.377142c0-19.017143 15.36-33.645714 34.377143-33.645715h230.4l-10.971429 19.017143 28.525715 49.005714zM836.754286 950.125714H634.148571l-101.668571-176.274285 101.668571-175.542858h202.605715l101.668571 175.542858-101.668571 176.274285z m43.154285-426.422857H590.994286L446.171429 773.851429 590.994286 1024h288.914285L1024 773.851429l-144.091429-250.148572z" p-id="2171"></path><path d="M796.525714 773.851429a61.366857 61.366857 0 1 1-122.806857 0 61.366857 61.366857 0 0 1 122.733714 0" p-id="2172"></path></svg>