<?xml version="1.0" standalone="no"?><!DOCTYPE svg PUBLIC "-//W3C//DTD SVG 1.1//EN" "http://www.w3.org/Graphics/SVG/1.1/DTD/svg11.dtd"><svg t="1560690847328" class="icon" style="" viewBox="0 0 1024 1024" version="1.1" xmlns="http://www.w3.org/2000/svg" p-id="2045" xmlns:xlink="http://www.w3.org/1999/xlink" width="48" height="48"><defs><style type="text/css"></style></defs><path d="M514.5 477.3c-63.3 0-122.9-24.7-167.7-69.5-44.8-44.8-69.5-104.4-69.5-167.7S302 117.3 346.8 72.5 451.2 3 514.5 3c63.3 0 122.9 24.7 167.7 69.5 44.8 44.8 69.5 104.4 69.5 167.7S727 363.1 682.2 407.9c-44.8 44.8-104.4 69.4-167.7 69.4z m0-394.3c-86.7 0-157.2 70.5-157.2 157.2s70.5 157.2 157.2 157.2c86.7 0 157.2-70.5 157.2-157.2S601.2 83 514.5 83zM883.6 1023c-22.1 0-40-17.9-40-40V776.2c0-88.2-71.8-160-160-160H345.4c-88.2 0-160 71.8-160 160V983c0 22.1-17.9 40-40 40s-40-17.9-40-40V776.2c0-64.1 25-124.4 70.3-169.7 45.3-45.3 105.6-70.3 169.7-70.3h338.1c64.1 0 124.4 25 169.7 70.3 45.3 45.3 70.3 105.6 70.3 169.7V983c0.1 22.1-17.8 40-39.9 40z" fill="" p-id="2046"></path><path d="M285 1023c-22.1 0-40-17.9-40-40v-96c0-22.1 17.9-40 40-40s40 17.9 40 40v96c0 22.1-17.9 40-40 40zM744 1023c-22.1 0-40-17.9-40-40v-96c0-22.1 17.9-40 40-40s40 17.9 40 40v96c0 22.1-17.9 40-40 40z" fill="" p-id="2047"></path></svg>