<?xml version="1.0" standalone="no"?><!DOCTYPE svg PUBLIC "-//W3C//DTD SVG 1.1//EN" "http://www.w3.org/Graphics/SVG/1.1/DTD/svg11.dtd"><svg t="1560753068818" class="icon" style="" viewBox="0 0 1024 1024" version="1.1" xmlns="http://www.w3.org/2000/svg" p-id="1438" xmlns:xlink="http://www.w3.org/1999/xlink" width="48" height="48"><defs><style type="text/css"></style></defs><path d="M352 736h64v-224h32v-160h-32V288h-64v64h-32v160h32v224zM768 160H256C201.6 160 160 201.6 160 256v512c0 54.4 41.6 96 96 96h512c54.4 0 96-41.6 96-96V256c0-54.4-41.6-96-96-96z m32 640H224V224h576v576z m-192-64h64v-64h32v-160h-32V288h-64v224h-32v160h32v64z" fill="" p-id="1439"></path></svg>