<?xml version="1.0" standalone="no"?><!DOCTYPE svg PUBLIC "-//W3C//DTD SVG 1.1//EN" "http://www.w3.org/Graphics/SVG/1.1/DTD/svg11.dtd"><svg t="1560691373844" class="icon" style="" viewBox="0 0 1024 1024" version="1.1" xmlns="http://www.w3.org/2000/svg" p-id="4485" xmlns:xlink="http://www.w3.org/1999/xlink" width="48" height="48"><defs><style type="text/css"></style></defs><path d="M365.731788 585.156963a292.562025 292.562025 0 0 0 292.562024-292.562025 285.247974 285.247974 0 0 0-40.958683-146.281012A292.562025 292.562025 0 1 0 365.731788 585.156963zM736.554154 569.797457a230.392595 230.392595 0 0 0 0-460.053784h-11.702481A391.301708 391.301708 0 0 1 768.004572 292.594938a399.347164 399.347164 0 0 1-100.933899 266.231443 219.421519 219.421519 0 0 0 69.483481 10.971076zM538.343382 676.582596A212.838873 212.838873 0 0 0 512.0128 667.805735 266.231443 266.231443 0 0 0 438.872294 658.297469H292.591281a271.351278 271.351278 0 0 0-73.140506 9.508266 292.562025 292.562025 0 0 0-134.578531 73.140506A292.562025 292.562025 0 0 0 0.029257 950.859494a73.140506 73.140506 0 0 0 73.140506 73.140506h585.124049a73.140506 73.140506 0 0 0 73.140507-73.140506 219.421519 219.421519 0 0 0 0-38.033063 292.562025 292.562025 0 0 0-193.090937-236.243835zM792.872344 626.847051H680.235964a195.285152 195.285152 0 0 0-46.809924 5.119836 400.078569 400.078569 0 0 1 219.421519 282.322354h114.09919a57.049595 57.049595 0 0 0 56.318189-56.31819 231.855405 231.855405 0 0 0-230.392594-231.124z" p-id="4486"></path></svg>