<?xml version="1.0" standalone="no"?><!DOCTYPE svg PUBLIC "-//W3C//DTD SVG 1.1//EN" "http://www.w3.org/Graphics/SVG/1.1/DTD/svg11.dtd"><svg t="1565157677415" class="icon" viewBox="0 0 1024 1024" version="1.1" xmlns="http://www.w3.org/2000/svg" p-id="1707" xmlns:xlink="http://www.w3.org/1999/xlink" width="48" height="48"><defs><style type="text/css"></style></defs><path d="M921.72288 784.9984l0 27.27936c0 60.33408-48.90624 109.24032-109.28128 109.24032l-600.8832 0c-60.37504 0-109.28128-48.90624-109.28128-109.24032l0-136.51968c0-15.07328 12.24704-27.32032 27.32032-27.32032 15.07328 0 27.32032 12.24704 27.32032 27.32032l0 136.51968c0 30.14656 24.49408 54.64064 54.64064 54.64064l600.8832 0c30.14656 0 54.64064-24.49408 54.64064-54.64064l0-136.51968c0-15.07328 12.20608-27.32032 27.32032-27.32032 15.07328 0 27.32032 12.24704 27.32032 27.32032L921.72288 784.9984 921.72288 784.9984 921.72288 784.9984zM821.12512 476.93824l-281.8048-281.68192 0 480.54272c0 15.07328-12.24704 27.32032-27.32032 27.32032-15.07328 0-27.32032-12.24704-27.32032-27.32032L484.67968 196.89472l-281.8048 281.68192c-10.69056 10.69056-27.97568 10.69056-38.62528 0-10.6496-10.6496-10.69056-27.97568 0-38.58432l325.59104-325.50912c0.86016-1.2288 1.4336-2.58048 2.49856-3.64544C492.46208 110.55104 492.46208 110.1824 492.70784 109.9776c0.36864-0.36864 0.90112-0.2048 1.26976-0.53248 4.42368-3.97312 10.11712-6.43072 16.42496-6.84032 1.14688-0.08192 2.048-0.08192 3.15392 0 6.3488 0.36864 12.04224 2.82624 16.46592 6.84032 0.36864 0.32768 0.90112 0.16384 1.26976 0.53248l328.45824 328.41728c10.6496 10.6496 10.6496 27.97568 0 38.58432C849.05984 487.58784 831.73376 487.58784 821.12512 476.93824L821.12512 476.93824z" p-id="1708"></path></svg>