<?xml version="1.0" standalone="no"?><!DOCTYPE svg PUBLIC "-//W3C//DTD SVG 1.1//EN" "http://www.w3.org/Graphics/SVG/1.1/DTD/svg11.dtd"><svg t="1560321268150" class="icon" style="" viewBox="0 0 1024 1024" version="1.1" xmlns="http://www.w3.org/2000/svg" p-id="4438" xmlns:xlink="http://www.w3.org/1999/xlink" width="48" height="48"><defs><style type="text/css"></style></defs><path d="M65.086 823.016c0.031-36.915 14.449-71.617 40.59-97.718l205.677-205.35-1.404-3.937c-12.75-35.741-19.198-73.189-19.163-111.309 0.159-182.735 148.953-331.269 331.689-331.113 45.492 0.039 89.727 9.244 131.475 27.359l12.927 5.605c0.571 0.467 1.221 0.852 1.946 1.124 1.909 0.7 3.571 1.765 5.019 3.205 2.53 2.537 3.935 5.934 3.931 9.542-0.002 3.607-1.413 7.002-3.969 9.556-0.637 0.639-1.15 1.355-1.53 2.138l-189.092 188.747 123.045 123.275 193.077-192.735c0.441-0.272 0.854-0.597 1.238-0.979 4.117-4.102 10.807-4.114 14.912-0.014 0.954 0.962 1.705 2.053 2.221 3.244l1.267 2.698 7.507 17.387c18.047 41.782 27.174 86.038 27.136 131.538-0.159 182.736-148.953 331.269-331.689 331.113-38.157-0.035-75.589-6.543-111.254-19.355l-3.933-1.41-205.702 205.35c-53.955 53.828-141.659 53.77-195.504-0.14-26.094-26.143-40.45-60.873-40.417-97.788l0.001-0.029zM141.827 761.513c-16.463 16.402-25.547 38.261-25.566 61.547-0.019 23.28 9.018 45.153 25.46 61.621 33.927 33.953 89.167 33.985 123.135 0.076l230.001-229.6 15.97 6.914c35.238 15.318 72.622 23.106 111.116 23.139 154.515 0.133 280.331-125.462 280.463-279.977 0.018-21.338-2.387-42.609-7.143-63.231l-2.676-11.596-178.007 177.715c-5.42 4.065-12.9 3.671-17.534-0.975l-3.317-3.113-175.303-175.604c-1.581-2.274-2.411-4.886-2.41-7.599 0.002-2.868 0.935-5.601 2.701-7.931l178.499-178.154-11.573-2.706c-20.546-4.802-41.813-7.25-63.212-7.269-154.518-0.133-280.337 125.462-280.471 279.974-0.035 38.446 7.687 75.855 22.956 111.193l6.879 15.97-229.971 229.607zM141.827 761.513z" p-id="4439"></path></svg>