<?xml version="1.0" standalone="no"?><!DOCTYPE svg PUBLIC "-//W3C//DTD SVG 1.1//EN" "http://www.w3.org/Graphics/SVG/1.1/DTD/svg11.dtd"><svg t="1560321376674" class="icon" style="" viewBox="0 0 1024 1024" version="1.1" xmlns="http://www.w3.org/2000/svg" p-id="5394" xmlns:xlink="http://www.w3.org/1999/xlink" width="48" height="48"><defs><style type="text/css"></style></defs><path d="M741.3 161.6h-42.4c-10.5 0-19.1 8.6-19.1 19.1s8.6 19.1 19.1 19.1h42.4c42 0 76.2 34.2 76.2 76.3v477.4c0 42.1-34.3 76.3-76.4 76.3H282.9c-42.1 0-76.3-34.2-76.3-76.3V276.1c0-42.1 34.2-76.3 76.3-76.3h44.9c10.5 0 19.1-8.6 19.1-19.1s-8.6-19.1-19.1-19.1h-44.9c-63.1 0-114.5 51.4-114.5 114.5v477.4c0 63.1 51.4 114.5 114.5 114.5h458.3c63.1 0 114.5-51.4 114.5-114.5V276.1c-0.1-63.1-51.4-114.5-114.4-114.5z" p-id="5395"></path><path d="M680.6 505.3H343.4c-12.3 0-22.3 8.6-22.3 19.1s10 19.1 22.3 19.1h337.2c12.3 0 22.3-8.6 22.3-19.1 0-10.6-10-19.1-22.3-19.1zM439.3 213.3h144.6c19 0 34.4-12.8 34.4-28.6s-15.4-28.6-34.4-28.6H439.3c-19 0-34.4 12.8-34.4 28.6-0.1 15.7 15.3 28.6 34.4 28.6zM680.6 658H343.4c-12.3 0-22.3 8.5-22.3 19.1 0 10.5 10 19.1 22.3 19.1h337.2c12.3 0 22.3-8.6 22.3-19.1 0-10.6-10-19.1-22.3-19.1zM680.6 352.5H343.4c-12.3 0-22.3 8.6-22.3 19.1s10 19.1 22.3 19.1h337.2c12.3 0 22.3-8.6 22.3-19.1 0-10.5-10-19.1-22.3-19.1z" p-id="5396"></path></svg>