<?xml version="1.0" standalone="no"?><!DOCTYPE svg PUBLIC "-//W3C//DTD SVG 1.1//EN" "http://www.w3.org/Graphics/SVG/1.1/DTD/svg11.dtd"><svg t="1560321009856" class="icon" style="" viewBox="0 0 1024 1024" version="1.1" xmlns="http://www.w3.org/2000/svg" p-id="3504" xmlns:xlink="http://www.w3.org/1999/xlink" width="48" height="48"><defs><style type="text/css"></style></defs><path d="M834.389333 739.541333h-56.917333v-170.666666a18.944 18.944 0 1 0-37.930667 0v170.666666H284.458667V512A227.797333 227.797333 0 0 1 512 284.458667a226.56 226.56 0 0 1 221.44 175.018666 18.986667 18.986667 0 0 0 36.949333-8.746666c-26.965333-113.92-124.074667-194.432-239.445333-202.624v-58.453334a18.986667 18.986667 0 0 0-37.888 0V247.466667c-137.557333 9.813333-246.528 124.586667-246.528 264.533333v227.541333H189.610667a18.986667 18.986667 0 0 0 0 37.973334h644.778666a18.986667 18.986667 0 0 0 0-37.973334M606.805333 815.402667H415.573333a18.986667 18.986667 0 0 0 0 37.930666h191.232a18.986667 18.986667 0 0 0 0-37.930666" p-id="3505"></path></svg>